 <svg  version="1.0" xmlns="http://www.w3.org/2000/svg"  width="300.000000pt" height="300.000000pt" viewBox="0 0 300.000000 300.000000"  preserveAspectRatio="xMidYMid meet">  <g transform="translate(0.000000,300.000000) scale(0.050000,-0.050000)" fill="#b80000" stroke="none"> <path d="M2874 5973 c-5 -12 -54 -39 -108 -58 -108 -37 -279 -175 -306 -244 -10 -26 -48 -54 -97 -70 -46 -15 -76 -36 -69 -47 8 -13 -1 -16 -21 -8 -95 37 -849 -339 -797 -397 8 -8 4 -10 -8 -3 -29 17 -188 -101 -188 -139 0 -16 -8 -25 -17 -19 -21 13 -285 -258 -397 -408 -149 -198 -478 -875 -404 -829 31 19 20 -3 -32 -63 -27 -32 -50 -69 -50 -82 0 -14 -26 -38 -57 -54 -310 -161 -349 -724 -73 -1047 41 -47 81 -80 91 -74 16 9 101 -130 110 -181 10 -50 153 -400 167 -409 9 -6 37 -51 62 -100 275 -542 889 -1057 1504 -1261 106 -35 211 -81 234 -103 23 -21 42 -32 42 -25 0 8 43 -31 95 -86 97 -102 171 -150 271 -174 33 -8 50 -22 42 -35 -22 -36 332 -11 360 25 21 27 163 126 240 168 21 11 34 26 30 33 -14 23 67 97 106 97 20 0 42 11 47 25 5 14 43 27 84 28 92 3 338 99 353 138 6 16 24 23 41 17 17 -7 31 -4 31 6 0 9 52 48 115 85 63 38 145 90 181 117 37 26 77 50 90 52 49 8 115 55 103 73 -6 10 3 19 21 19 18 0 27 9 20 20 -7 11 0 20 16 20 32 0 254 203 254 232 0 10 37 64 83 118 128 154 377 550 346 550 -6 0 2 14 20 32 17 17 26 39 20 50 -6 10 -1 18 11 18 12 0 17 9 10 20 -7 11 2 34 19 52 17 17 27 39 21 49 -6 9 7 51 29 93 23 41 41 88 41 102 0 15 56 83 126 151 121 119 193 233 200 314 1 21 11 39 21 39 10 0 13 19 7 41 -9 34 -6 37 18 18 24 -20 28 0 28 139 0 118 -7 162 -26 162 -14 0 -27 23 -30 51 -2 29 -17 65 -34 82 -16 16 -30 39 -30 49 0 11 -63 87 -140 168 -77 81 -140 162 -140 179 0 17 -8 47 -19 66 -38 72 -121 307 -121 343 0 20 -13 48 -29 61 -16 14 -35 43 -42 65 -25 76 -295 443 -437 592 -78 82 -140 158 -137 168 4 10 -4 13 -16 5 -12 -7 -51 13 -86 46 -35 32 -105 91 -157 129 -52 39 -88 78 -80 86 8 9 -2 11 -20 4 -19 -7 -42 -1 -50 12 -9 13 -38 35 -66 48 -121 57 -379 164 -474 197 -57 20 -98 45 -92 56 8 12 -1 14 -22 7 -51 -20 -241 125 -232 176 4 26 -146 129 -236 162 -52 19 -103 45 -114 57 -27 31 -244 35 -256 4z m304 -222 c115 -41 215 -122 275 -224 41 -70 66 -90 134 -107 933 -236 1584 -903 1845 -1894 3 -14 36 -37 73 -53 378 -157 377 -707 0 -941 -56 -35 -85 -67 -85 -94 0 -23 -27 -124 -61 -223 -275 -823 -977 -1456 -1821 -1643 -34 -7 -62 -33 -78 -72 -57 -137 -293 -280 -460 -280 -167 0 -403 143 -460 280 -16 39 -43 64 -78 72 -693 146 -1337 641 -1668 1282 -95 185 -214 509 -214 585 0 28 -22 55 -65 77 -393 206 -407 771 -25 953 55 26 73 50 90 117 229 907 927 1605 1833 1834 68 17 93 37 136 110 122 208 394 304 629 221z"/> <path d="M2884 5575 c6 -133 38 -161 57 -51 l11 66 39 -65 c80 -135 149 -109 149 56 0 106 -4 119 -40 119 -33 0 -40 -13 -40 -75 l0 -74 -51 74 c-84 124 -132 104 -125 -50z"/> <path d="M2599 5191 c-12 -12 -19 -12 -19 0 0 10 -8 7 -17 -7 -9 -15 -47 -31 -83 -37 -37 -6 -90 -19 -118 -31 -29 -11 -74 -24 -101 -29 -28 -5 -62 -20 -78 -33 -49 -41 -170 -74 -185 -51 -9 15 -17 15 -27 -1 -7 -12 -4 -22 8 -22 11 0 21 -10 21 -22 0 -13 -18 -18 -40 -12 -26 7 -40 0 -40 -18 0 -25 -39 -38 -86 -30 -10 2 -11 -6 -4 -18 7 -11 -2 -20 -19 -20 -17 0 -31 -9 -31 -20 0 -11 -10 -20 -23 -20 -13 0 -53 -23 -90 -51 -37 -28 -67 -47 -67 -41 0 6 -30 -21 -67 -59 -37 -38 -75 -69 -86 -69 -22 0 -167 -190 -167 -219 0 -12 -12 -21 -28 -21 -15 0 -38 -27 -52 -60 -14 -33 -32 -60 -40 -60 -8 0 -20 -19 -26 -42 -7 -27 -20 -37 -36 -27 -16 10 -19 7 -9 -9 8 -14 2 -40 -14 -58 -35 -41 -66 -111 -72 -164 -2 -11 -19 -20 -38 -20 -30 -1 -31 -3 -5 -20 20 -13 22 -19 5 -20 -14 0 -25 -17 -25 -37 0 -20 -7 -43 -15 -51 -8 -9 -16 -21 -17 -29 -9 -76 -60 -263 -72 -263 -8 0 -7 -22 4 -49 11 -29 11 -54 0 -61 -9 -6 -14 -29 -10 -52 5 -22 -1 -64 -12 -92 -13 -36 -13 -59 3 -74 13 -13 20 -14 18 -2 -8 40 1 70 21 70 11 0 21 -20 22 -45 2 -35 5 -37 12 -9 5 20 -2 49 -15 65 -16 20 -17 29 -2 29 12 0 28 25 35 55 336 1510 1862 2214 3178 1466 422 -239 804 -759 956 -1301 45 -157 63 -962 26 -1110 -10 -41 -8 -54 6 -40 11 11 24 79 28 150 6 96 7 87 5 -35 -4 -170 -18 -215 -53 -164 -15 22 -17 17 -7 -19 9 -32 6 -43 -9 -33 -13 8 -17 1 -9 -19 7 -19 2 -29 -13 -26 -26 7 -137 -142 -255 -342 -488 -832 -1666 -1193 -2588 -793 -474 205 -826 547 -1088 1056 -56 108 -108 190 -115 182 -8 -7 -14 10 -14 38 0 29 -9 58 -20 65 -12 7 -15 23 -7 36 7 13 6 17 -3 9 -22 -20 -26 -115 -5 -115 9 0 15 -29 14 -65 -3 -87 16 -169 53 -225 16 -25 35 -72 40 -103 6 -31 23 -64 39 -73 16 -9 29 -30 29 -46 0 -18 9 -25 23 -16 16 10 20 4 11 -19 -7 -18 -6 -33 2 -33 8 0 36 -34 62 -75 64 -99 438 -465 475 -465 16 0 24 -8 18 -19 -6 -10 9 -24 34 -32 25 -7 63 -30 85 -50 22 -20 64 -42 94 -49 29 -8 57 -24 62 -37 5 -13 55 -41 112 -62 56 -22 102 -45 102 -50 0 -6 33 -13 73 -16 41 -3 84 -14 96 -24 13 -11 58 -23 101 -28 43 -5 82 -18 86 -30 3 -11 20 -16 36 -10 15 6 42 0 59 -14 36 -30 564 -43 582 -14 6 9 23 6 39 -6 22 -19 36 -18 61 4 18 15 39 25 45 23 7 -2 34 1 60 8 27 7 68 14 90 16 80 6 172 35 172 54 0 10 8 13 18 7 11 -6 32 2 49 19 17 16 44 30 62 30 17 0 31 9 31 20 0 11 23 20 50 20 28 0 50 9 50 20 0 11 27 20 60 20 33 0 60 7 60 15 0 8 26 27 58 41 31 14 78 43 103 65 25 21 57 39 71 39 15 0 36 18 48 40 12 22 34 40 50 40 16 0 38 18 50 39 12 23 33 35 50 28 19 -7 30 0 30 19 0 17 36 59 80 94 44 35 80 75 80 90 0 14 14 31 30 37 17 7 30 25 30 42 0 16 17 39 38 50 22 12 52 46 67 76 84 161 132 242 139 234 10 -9 14 13 20 101 2 28 20 55 39 61 20 6 30 23 24 40 -6 16 -3 29 7 29 19 0 64 153 70 244 3 35 12 48 25 37 14 -12 20 18 19 90 -2 60 4 104 13 99 8 -6 10 9 4 33 -6 24 -3 38 7 32 15 -9 22 263 8 335 -2 11 -4 99 -4 196 0 134 -7 180 -29 188 -23 9 -23 16 -3 42 17 21 18 27 2 18 -28 -18 -49 39 -37 101 5 25 0 45 -11 45 -24 0 -62 95 -62 158 -1 52 -24 102 -91 195 -25 35 -45 78 -45 95 0 18 -9 32 -20 32 -11 0 -20 14 -20 30 0 17 -9 30 -20 30 -12 0 -32 25 -45 55 -48 107 -385 458 -493 514 -35 18 -58 41 -52 52 7 10 -2 13 -19 7 -18 -7 -36 1 -43 20 -7 18 -29 32 -50 32 -21 0 -38 10 -38 23 0 13 -6 18 -13 11 -7 -7 -35 5 -62 26 -27 22 -58 34 -68 28 -10 -6 -16 1 -12 15 3 14 -13 25 -35 26 -22 0 -52 12 -66 26 -15 14 -45 25 -67 25 -21 0 -80 19 -130 41 -116 53 -234 67 -218 26 8 -22 -3 -28 -44 -23 -39 4 -54 17 -52 42 2 20 -2 32 -8 26 -5 -6 -42 3 -81 19 -81 34 -651 34 -685 0z"/> <path d="M3329 5033 c-11 -31 -48 -199 -49 -219 0 -9 38 -14 85 -10 75 5 85 12 87 56 2 28 9 66 18 85 8 20 4 48 -8 63 -30 36 -123 53 -133 25z m79 -25 c50 -19 38 -68 -16 -68 -38 0 -46 8 -38 40 12 45 11 44 54 28z m-20 -100 c35 -13 43 -59 14 -77 -35 -21 -78 11 -67 50 11 44 10 43 53 27z"/> <path d="M3044 4996 c-38 -38 -28 -74 26 -88 28 -7 50 -21 50 -32 0 -12 -22 -15 -52 -7 -38 9 -50 6 -43 -13 4 -14 34 -26 66 -26 78 0 91 61 20 93 -28 13 -51 31 -51 40 0 27 56 20 66 -8 5 -14 16 -18 24 -10 19 17 -26 75 -58 75 -13 0 -35 -11 -48 -24z"/> <path d="M2829 4979 c-7 -12 -6 -28 2 -35 8 -8 18 -3 23 11 10 28 66 35 66 8 0 -9 -23 -27 -51 -40 -78 -35 -57 -91 37 -99 l76 -7 -13 77 c-8 42 -18 83 -23 91 -13 23 -102 18 -117 -6z"/> <path d="M2631 4848 l13 -122 -92 -11 c-54 -6 -180 -53 -297 -111 -113 -55 -263 -121 -335 -146 -120 -44 -260 -151 -260 -201 0 -11 -7 -15 -16 -10 -9 6 -42 -29 -75 -78 -32 -48 -66 -88 -75 -89 -9 0 -11 -8 -5 -19 6 -10 -7 -32 -30 -48 -33 -23 -37 -33 -16 -46 15 -9 27 -30 27 -47 0 -64 58 -23 206 149 743 861 1930 852 2668 -20 133 -156 147 -168 172 -135 33 45 16 158 -30 196 -13 11 -27 32 -30 46 -11 49 -185 209 -276 254 -226 112 -364 170 -405 171 -41 0 -42 2 -9 21 115 67 122 255 10 257 -76 2 -104 -150 -33 -176 32 -12 37 -21 19 -32 -14 -9 -36 -5 -48 7 -31 31 -60 27 -47 -7 8 -21 -5 -19 -53 9 -178 102 -560 144 -882 96 -21 -3 -42 8 -48 24 -5 17 -3 24 6 16 31 -29 90 25 90 82 0 70 -37 103 -108 98 -54 -5 -54 -5 -41 -128z m105 37 c-3 -33 -18 -55 -36 -55 -18 0 -33 22 -36 55 -5 45 1 55 36 55 35 0 41 -10 36 -55z m1089 -77 c19 -19 -29 -108 -58 -108 -28 0 -38 82 -14 107 17 16 56 17 72 1z"/> <path d="M2472 4923 c-6 -10 -48 -24 -93 -31 -73 -11 -80 -18 -68 -57 32 -102 49 -135 71 -135 13 0 17 14 8 35 -9 19 -20 55 -25 80 -15 70 53 57 78 -15 24 -69 67 -83 45 -15 -23 73 -20 105 11 105 16 0 38 -29 48 -65 10 -36 27 -65 37 -65 23 0 0 119 -29 155 -23 29 -68 33 -83 8z"/> <path d="M3540 4900 c-70 -70 -40 -160 54 -160 52 0 99 77 80 127 -24 61 -90 77 -134 33z m90 -62 c0 -35 -13 -50 -45 -54 -51 -8 -63 50 -21 92 36 36 66 18 66 -38z"/> <path d="M2140 4790 c-32 -39 -10 -123 40 -150 56 -30 120 8 120 69 0 92 -106 146 -160 81z m117 -57 c4 -21 -3 -47 -14 -58 -29 -29 -83 17 -83 69 0 51 87 42 97 -11z"/> <path d="M1935 4758 c-97 -56 11 -264 118 -227 57 20 98 129 48 129 -11 0 -21 -18 -21 -41 0 -62 -60 -73 -104 -19 -55 68 -41 131 29 126 60 -4 74 22 23 42 -41 16 -51 15 -93 -10z"/> <path d="M3928 4765 c-55 -37 -68 -100 -31 -146 43 -54 107 -41 138 29 36 78 -41 161 -107 117z m82 -45 c17 -27 -26 -100 -60 -100 -41 0 -55 34 -30 80 23 42 69 53 90 20z"/> <path d="M4064 4608 c-56 -85 -38 -122 19 -43 22 30 60 55 84 56 42 0 42 1 4 30 -52 39 -54 39 -107 -43z"/> <path d="M2954 4507 c-23 -22 -15 -850 7 -836 11 6 19 27 19 45 0 19 18 63 39 97 33 55 39 107 43 380 l4 317 -49 6 c-27 3 -55 -1 -63 -9z"/> <path d="M3920 3920 c-52 -73 -32 -79 33 -9 51 56 57 69 28 69 -10 0 -38 -27 -61 -60z"/> <path d="M1640 3827 c-479 -89 -719 -399 -719 -927 0 -639 289 -916 996 -953 611 -32 1022 196 1023 567 0 262 -389 292 -532 41 -90 -160 -142 -179 -458 -170 -422 12 -479 73 -480 515 0 431 53 487 477 496 322 8 356 -5 433 -156 64 -126 124 -160 284 -160 418 0 297 519 -164 703 -108 44 -701 74 -860 44z m693 -190 c49 3 67 -6 77 -37 7 -22 22 -35 34 -28 11 7 27 3 34 -9 8 -13 39 -25 69 -27 34 -3 50 -14 44 -30 -5 -13 -1 -30 10 -37 10 -6 19 -2 19 10 0 11 10 21 22 21 12 0 18 -12 12 -26 -5 -14 3 -43 18 -64 58 -79 -1 -194 -63 -123 -16 18 -18 24 -5 13 13 -11 33 -20 44 -20 11 0 2 13 -19 28 -24 18 -47 22 -61 11 -28 -24 -48 -3 -48 48 0 22 -5 34 -12 28 -16 -16 -67 30 -55 50 5 8 -5 21 -22 27 -17 7 -31 27 -31 45 -1 29 -3 29 -20 3 -19 -29 -30 -8 -23 44 1 7 -16 10 -37 6 -24 -5 -40 3 -40 18 0 16 -19 24 -50 21 -33 -4 -50 4 -50 24 0 22 12 26 45 15 25 -8 74 -13 108 -11z m-709 -37 c20 0 36 -9 36 -20 0 -26 -97 -64 -122 -49 -10 6 -18 3 -18 -8 0 -11 -31 -52 -70 -92 -38 -39 -70 -82 -70 -94 0 -11 -12 -16 -28 -11 -20 8 -24 -1 -17 -30 6 -23 -1 -47 -17 -57 -68 -43 -26 -759 46 -759 10 0 15 -7 10 -15 -11 -19 180 -205 195 -190 6 7 11 2 11 -10 0 -11 27 -30 60 -42 61 -21 79 -69 37 -95 -16 -10 -20 -4 -11 18 9 23 3 29 -19 20 -17 -6 -39 1 -49 16 -9 15 -18 19 -18 7 0 -11 -18 -22 -40 -24 -25 -1 -36 6 -27 20 9 14 2 17 -19 9 -33 -12 -274 133 -274 166 0 10 -8 38 -18 64 -9 25 -19 55 -21 66 -2 11 -18 36 -35 55 -39 42 -43 82 -47 391 -2 201 3 253 29 282 18 19 32 48 32 65 0 16 13 47 29 68 17 22 30 55 30 74 1 19 10 35 21 35 11 0 20 -16 20 -35 1 -28 4 -30 18 -7 10 16 13 42 7 58 -8 21 -4 26 12 16 15 -9 41 5 66 37 23 29 56 50 74 47 18 -4 49 10 70 31 27 27 43 31 59 15 12 -12 38 -22 58 -22z m1107 -1090 c24 -18 31 -35 19 -45 -11 -8 -23 -28 -26 -45 -11 -52 -65 -122 -84 -110 -10 6 -30 -7 -44 -29 -14 -23 -41 -41 -61 -41 -19 0 -35 -8 -35 -18 0 -10 -15 -23 -33 -30 -26 -10 -28 -7 -10 14 17 21 15 27 -7 27 -17 0 -31 -18 -32 -41 0 -23 -6 -31 -11 -17 -6 14 -23 25 -39 25 -33 0 -35 10 -7 61 11 22 34 39 50 39 16 0 29 7 29 15 0 8 27 33 60 55 41 27 56 51 48 75 -7 23 2 39 26 47 20 6 50 19 66 28 42 24 47 24 91 -10z m-385 -319 c36 -27 36 -28 0 -35 -20 -4 -47 6 -61 23 -22 27 -24 27 -13 -3 10 -30 -15 -34 -270 -34 -163 0 -282 8 -282 19 0 11 111 19 259 19 151 0 264 8 271 20 17 27 53 24 96 -9z"/> <path d="M3162 3785 l-57 -57 -1 -818 c-1 -883 3 -916 104 -941 150 -38 1322 2 1442 49 381 150 513 638 240 890 l-53 49 56 85 c134 201 68 508 -140 651 -182 125 -236 134 -918 142 l-615 8 -58 -58z m533 -149 c14 -2 25 -11 25 -21 0 -11 -12 -14 -28 -9 -24 10 -124 -80 -118 -106 6 -23 -40 -59 -59 -47 -12 8 -15 3 -7 -10 8 -13 5 -23 -6 -23 -11 0 -15 -15 -8 -33 8 -20 5 -29 -7 -21 -24 14 -22 -45 2 -84 12 -20 10 -24 -9 -12 -20 12 -23 5 -12 -32 8 -26 16 -59 17 -73 1 -14 11 -25 22 -25 11 0 15 -5 8 -11 -6 -7 29 -52 78 -101 53 -53 83 -99 75 -113 -29 -52 -74 -94 -89 -84 -9 5 -23 -1 -31 -14 -9 -14 -6 -18 9 -9 39 24 26 -4 -27 -56 -28 -29 -50 -74 -51 -106 -1 -31 -3 -102 -5 -159 -2 -57 2 -100 9 -95 8 5 17 -12 21 -37 3 -25 15 -45 26 -46 37 0 100 -46 85 -61 -8 -8 -1 -30 16 -49 24 -27 26 -39 7 -50 -15 -10 -19 -7 -10 8 8 13 5 23 -7 23 -11 0 -21 -9 -21 -20 0 -11 -22 -20 -50 -20 -27 0 -50 11 -50 25 -1 18 -5 17 -18 -3 -24 -37 -154 -12 -171 33 -14 35 -15 1036 -2 1170 4 41 -1 75 -11 75 -10 0 -13 37 -5 85 13 82 40 122 70 103 8 -5 20 1 27 12 11 18 101 17 305 -4z m794 -15 c7 -11 27 -14 45 -7 25 10 30 5 20 -20 -7 -19 -6 -32 2 -30 132 37 292 -243 195 -340 -5 -4 0 -30 10 -58 15 -38 11 -60 -17 -95 -48 -61 -41 -116 32 -271 38 -80 60 -155 57 -195 -3 -36 2 -65 11 -65 9 0 16 -22 16 -50 0 -27 -8 -50 -19 -50 -10 0 -21 -29 -25 -64 -4 -48 -24 -77 -76 -111 -38 -26 -86 -59 -105 -75 -19 -16 -35 -22 -35 -14 0 9 -40 13 -90 10 -112 -9 -118 25 -10 54 57 15 80 32 80 59 0 21 11 41 25 46 14 5 27 30 29 57 1 26 9 84 16 128 10 61 2 104 -33 180 -25 55 -43 107 -41 116 3 10 -5 11 -16 4 -15 -9 -14 -24 4 -47 18 -23 12 -22 -19 5 -25 21 -40 44 -33 50 6 7 -23 22 -65 34 -72 20 -128 108 -69 108 29 0 183 163 171 181 -5 9 11 10 36 4 38 -10 41 -7 20 18 -14 17 -21 67 -17 114 4 51 -2 84 -16 85 -12 0 -10 6 5 12 19 7 13 17 -18 33 -44 23 -53 34 -98 133 -12 28 -18 34 -12 15 5 -19 1 -35 -10 -35 -10 0 -19 14 -19 30 0 19 -20 31 -55 32 l-55 3 60 15 c87 22 106 22 119 1z m-109 -241 c51 -51 53 -162 4 -206 -29 -26 -97 -33 -380 -38 l-344 -6 0 145 0 145 340 0 c313 0 343 -3 380 -40z m68 -700 c58 -57 54 -214 -7 -263 -41 -33 -86 -37 -418 -37 l-373 0 6 175 7 175 373 -6 c334 -6 378 -11 412 -44z"/> <path d="M2940 3151 c0 -39 -96 -111 -149 -111 -48 0 -106 -57 -222 -219 -58 -81 -68 -104 -39 -91 22 9 85 21 140 25 68 6 116 23 150 55 42 38 58 42 100 25 131 -56 140 -45 140 159 l0 186 -60 0 c-39 0 -60 -10 -60 -29z m100 -171 c0 -44 -8 -80 -17 -80 -18 0 -27 117 -11 144 20 32 28 14 28 -64z m-87 -49 c-11 -29 -113 -37 -113 -8 0 9 19 36 43 60 46 46 94 10 70 -52z"/> <path d="M300 3096 c0 -58 78 -226 107 -232 20 -4 42 18 60 60 l29 66 15 -66 c29 -131 157 1 167 172 4 55 -65 11 -89 -56 l-24 -70 -19 70 c-13 48 -30 70 -56 70 -26 0 -43 -22 -56 -70 l-19 -70 -24 70 c-24 68 -91 110 -91 56z"/> <path d="M5457 2999 c-8 -147 -15 -139 116 -139 82 0 107 7 107 30 0 22 -22 30 -80 30 -44 0 -80 9 -80 20 0 11 32 20 70 20 49 0 70 9 70 30 0 21 -21 30 -70 30 -100 0 -87 36 15 44 120 9 97 45 -33 52 l-108 6 -7 -123z"/> <path d="M1596 3000 l-9 -60 447 0 447 0 -68 60 -68 60 -370 0 -370 0 -9 -60z"/> <path d="M2940 1780 l0 -300 60 0 60 0 0 205 c1 198 -51 391 -105 394 -8 1 -15 -134 -15 -299z"/> <path d="M4249 1820 c-44 -33 -133 -106 -199 -162 -121 -102 -408 -254 -565 -300 -47 -13 -85 -30 -85 -38 0 -7 -138 -15 -307 -18 -539 -9 -867 109 -1257 448 -132 115 -196 138 -196 71 0 -92 43 -139 168 -179 67 -21 108 -40 90 -41 -35 -1 -106 -73 -124 -126 -27 -74 50 -149 127 -125 55 18 49 53 -7 39 -77 -19 -110 40 -60 107 49 66 89 69 116 9 24 -56 50 -58 50 -4 0 39 3 39 32 10 165 -165 1003 -351 1190 -264 26 12 35 -4 50 -91 18 -102 20 -106 78 -100 75 8 116 56 89 105 -32 61 -23 139 16 139 80 1 422 149 607 263 51 31 106 57 124 57 52 0 150 97 165 163 20 93 -13 106 -102 37z m-874 -585 c-13 -38 -75 -43 -75 -6 0 18 17 31 42 31 24 0 38 -10 33 -25z m32 -85 c10 -25 -38 -70 -76 -70 -16 0 -14 70 2 87 23 23 62 14 74 -17z"/> <path d="M4096 1553 c-36 -27 36 -173 85 -173 28 0 24 17 -21 81 -25 34 -33 61 -20 69 23 14 27 50 5 49 -8 0 -30 -12 -49 -26z"/> <path d="M3924 1456 c-70 -70 17 -200 106 -160 60 28 67 103 13 151 -43 39 -86 42 -119 9z m96 -46 c29 -36 13 -90 -28 -90 -33 0 -62 68 -42 100 17 28 41 25 70 -10z"/> <path d="M2013 1383 c-44 -48 -42 -89 6 -133 79 -71 192 71 117 146 -35 35 -85 30 -123 -13z m107 -41 c0 -20 -14 -49 -31 -63 -41 -34 -78 2 -60 59 17 53 91 57 91 4z"/> <path d="M3760 1374 c-96 -48 -51 -211 52 -185 27 7 48 3 48 -9 0 -11 -18 -20 -40 -20 -22 0 -40 -9 -40 -20 0 -32 72 -23 101 11 22 27 20 50 -11 140 -40 120 -39 119 -110 83z m68 -66 c20 -53 13 -88 -17 -88 -35 0 -78 72 -61 100 19 31 64 24 78 -12z"/> <path d="M2222 1295 c-42 -114 -46 -140 -20 -131 14 5 34 37 43 72 28 108 83 85 66 -28 -16 -103 17 -109 39 -7 10 43 24 59 47 54 34 -8 35 -11 12 -100 -20 -82 24 -68 51 16 27 80 -2 138 -59 123 -18 -4 -44 4 -57 19 -39 42 -103 32 -122 -18z"/> <path d="M3525 1287 c-38 -15 -30 -116 12 -154 50 -45 77 -41 115 17 56 85 -29 176 -127 137z m102 -57 c17 -45 -8 -93 -45 -86 -50 10 -55 116 -5 116 21 0 44 -13 50 -30z"/> <path d="M2527 1130 c-18 -121 -7 -172 21 -99 8 21 25 27 50 20 70 -22 135 118 77 164 -91 71 -128 50 -148 -85z m126 38 c16 -40 -45 -104 -72 -77 -27 27 -3 109 32 109 16 0 34 -14 40 -32z"/> <path d="M2773 1207 c-29 -29 -10 -47 37 -35 31 8 50 4 50 -10 0 -12 -23 -22 -51 -22 -58 0 -84 -47 -50 -89 49 -59 141 -32 141 40 0 112 -68 174 -127 116z"/> <path d="M2985 1207 c-45 -19 -28 -85 25 -99 28 -7 50 -21 50 -32 0 -12 -22 -15 -52 -7 -38 9 -50 6 -43 -13 4 -14 35 -26 67 -26 80 0 96 82 19 101 -28 8 -51 21 -51 31 0 26 48 22 78 -7 21 -20 25 -17 19 15 -7 39 -63 58 -112 37z"/> <path d="M2912 534 c-57 -41 -32 -100 52 -123 93 -27 118 -51 51 -51 -29 0 -58 9 -65 20 -19 31 -70 24 -70 -9 0 -62 141 -93 221 -50 77 41 9 139 -95 139 -26 0 -46 9 -46 20 0 27 87 25 114 -2 40 -40 72 2 34 44 -40 44 -143 50 -196 12z"/> </g> </svg> 